<?xml version="1.0" encoding="UTF-8"?><svg id="Layer_2" xmlns="http://www.w3.org/2000/svg" viewBox="0 0 547.651 166.387"><defs><style>.cls-1{fill:#ffb81c;}</style></defs><g id="Layer_1-2"><g><path class="cls-1" d="M49.801,63.933v102.454s38.298,0,38.298,0V63.933c0-14.078,11.455-25.532,25.533-25.532h33.504s0-38.298,0-38.298h-33.504c-.728,0,16.089,.041-4.87,.041-18.932,0-58.96,19.246-58.96,63.789Z"/><path class="cls-1" d="M44.809,38.4H0V.102H77.417c-14.901,8.487-26.556,22.04-32.608,38.298Z"/><path class="cls-1" d="M291.118,62.26c-.002-.049-.004-.097-.006-.145-.017-.602-.044-1.203-.077-1.801-.005-.079-.011-.159-.015-.239-.002-.03-.004-.059-.005-.088-.032-.511-.068-1.021-.112-1.528,0-.011-.002-.021-.003-.031v-.006c-.08-.929-.177-1.853-.296-2.771,0-.004,0-.008-.002-.011-.019-.141-.04-.281-.059-.422-.002-.014-.004-.027-.006-.041-.053-.388-.108-.776-.169-1.162,0-.003,0-.006,0-.009-.02-.124-.042-.247-.062-.371-.002-.006-.002-.012-.003-.018-.067-.411-.136-.821-.211-1.229,0-.002,0-.004,0-.006-.02-.106-.041-.212-.061-.319-.002-.011-.005-.023-.008-.034-.079-.417-.159-.833-.247-1.248,0-.004-.002-.008-.003-.012-.011-.05-.022-.1-.033-.151-.332-1.555-.719-3.09-1.162-4.602,0-.003-.002-.006-.003-.009-.013-.044-.026-.086-.038-.13-.002-.005-.003-.009-.005-.014-.138-.469-.282-.935-.431-1.399,0-.005-.003-.01-.004-.014-.011-.032-.022-.064-.032-.096-.002-.003-.002-.006-.003-.01-.155-.478-.314-.953-.48-1.426,0-.003-.002-.006-.003-.01-.005-.014-.01-.027-.014-.04-.351-1.002-.727-1.992-1.126-2.97-.002-.005-.004-.01-.006-.015,0-.003-.003-.007-.004-.011-7.254-17.759-22.284-31.543-40.837-37.1-.023-.007-.045-.014-.068-.02-5.775-1.722-11.887-2.652-18.214-2.652h-32.717s-30.642,0-30.642,0V166.387h38.298V38.401h25.06c14.078,0,25.532,11.454,25.532,25.532v102.454h0s38.298,0,38.298,0h0V63.933h0c0-.558-.007-1.114-.021-1.668v-.005Z"/><path class="cls-1" d="M319.291,.102h-55.768c14.901,8.487,26.557,22.04,32.608,38.298h23.16c14.078,0,25.532,11.454,25.532,25.532v102.455h38.298V63.932C383.121,28.736,354.488,.102,319.291,.102Z"/><path class="cls-1" d="M464.749,128.089c-14.079,0-25.532-11.454-25.532-25.532V.102h-38.298V102.557c0,35.197,28.634,63.83,63.83,63.83h82.902v-38.298h-82.902Z"/><rect class="cls-1" x="508.958" width="38.298" height="118.514"/><path class="cls-1" d="M464.749,128.089c-14.079,0-25.532-11.454-25.532-25.532V.102h-38.298V102.557c0,35.197,28.634,63.83,63.83,63.83h82.902v-38.298h-82.902Z"/></g></g></svg>